<?xml version="1.0" encoding="utf-8"?>
<!-- Generator: Adobe Illustrator 23.0.0, SVG Export Plug-In . SVG Version: 6.00 Build 0)  -->
<svg version="1.1" id="Capa_1" xmlns="http://www.w3.org/2000/svg" xmlns:xlink="http://www.w3.org/1999/xlink" x="0px" y="0px"
	 viewBox="0 0 168.2 115.4" style="enable-background:new 0 0 168.2 115.4;" xml:space="preserve">
<style type="text/css">
	.st0{clip-path:url(#SVGID_2_);}
	.st1{clip-path:url(#SVGID_4_);fill-rule:evenodd;clip-rule:evenodd;fill:#E1E7E8;}
	.st2{fill-rule:evenodd;clip-rule:evenodd;fill:#E1E7E8;}
	.st3{fill-rule:evenodd;clip-rule:evenodd;fill:#FFFFFF;}
	.st4{fill:none;stroke:#FFFFFF;stroke-width:5;}
	.st5{fill-rule:evenodd;clip-rule:evenodd;fill:#00303C;}
	.st6{fill:none;stroke:#FFFFFF;stroke-width:6.783;}
</style>
<g>
	<g>
		<defs>
			<rect id="SVGID_1_" x="6.7" y="71.6" width="161.5" height="43.8"/>
		</defs>
		<clipPath id="SVGID_2_">
			<use xlink:href="#SVGID_1_"  style="overflow:visible;"/>
		</clipPath>
		<g class="st0">
			<defs>
				<rect id="SVGID_3_" x="6.7" y="71.6" width="161.5" height="43.8"/>
			</defs>
			<clipPath id="SVGID_4_">
				<use xlink:href="#SVGID_3_"  style="overflow:visible;"/>
			</clipPath>
			<path class="st1" d="M26.9,111.4c0,2.7-1.2,4-3.8,4H6.7V71.6h16.3c2.4,0,3.7,1.3,3.7,4v11.3c0,1.5-0.4,2.6-1.3,3.5
				c-0.1,0.1-1.2,0.8-3.2,2.2c2.1,1.4,3.2,2.1,3.3,2.2c1,0.9,1.4,2.1,1.4,3.6V111.4z M20.6,87.7V77.1h-7.7V90h4.7L20.6,87.7z
				 M20.7,109.9V97.4l-3-2.1h-4.8v14.6H20.7z M38,115.4h-6.2V71.6H38V115.4z M63.4,111.4c0,2.7-1.3,4-3.8,4H46.7
				c-2.4,0-3.7-1.3-3.7-4V75.6c0-2.7,1.2-4,3.7-4h12.9c2.5,0,3.8,1.3,3.8,4V85h-6.2v-7.8h-8v32.6h8V97.5h-4.6V92h10.8V111.4z
				 M99.7,111.4c0,2.7-1.2,4-3.8,4H83.1c-2.4,0-3.7-1.3-3.7-4V75.6c0-2.7,1.2-4,3.7-4h12.8c2.5,0,3.8,1.3,3.8,4v10.2h-6.1v-8.7h-8
				v32.6h8v-9.2h6.1V111.4z M125.2,115.4H119V95.8h-8.3v19.7h-6.2V71.6h6.2v18.1h8.3V71.6h6.2V115.4z M147.2,115.4h-17.1V71.6H147
				v5.8h-10.8v12.8h9.3v5.7h-9.3v13.8h10.9V115.4z M168.2,77.4h-10.6v13h9.1V96h-9.1v19.4h-6.2V71.6h16.8V77.4z"/>
		</g>
	</g>
</g>
<path class="st2" d="M151.6,115.1V71.9h16.3v5.2h-10.6v13.5h9.1v5.1h-9.1v19.4H151.6z M130.4,115.1V71.9h16.4v5.2H136v13.4h9.3v5.1
	H136v14.3h10.9v5.2H130.4z M119.3,115.1V95.5h-8.9v19.7h-5.6V71.9h5.6V90h8.9V71.9h5.7v43.3H119.3z M83.1,115.1
	c-2.3,0-3.4-1.2-3.4-3.7V75.6c0-2.5,1.1-3.7,3.4-3.7h12.8c2.3,0,3.5,1.2,3.5,3.7v10h-5.6v-8.7h-8.5v33.1h8.5v-9.2h5.6v10.6
	c0,2.5-1.1,3.7-3.5,3.7H83.1z M46.7,115.1c-2.3,0-3.4-1.2-3.4-3.7V75.6c0-2.5,1.1-3.7,3.5-3.7h12.9c2.3,0,3.5,1.2,3.5,3.7v9.1h-5.6
	v-7.8H49v33.1h8.6V97.2h-4.6v-5h10.2v19.2c0,2.5-1.1,3.7-3.5,3.7H46.7z M32.1,71.9h5.6v43.3h-5.6V71.9z M7,115.1V71.9h16.1
	c2.3,0,3.4,1.2,3.4,3.7v11.3c0,1.4-0.4,2.5-1.2,3.3c-0.1,0.1-0.6,0.4-3.2,2.1l-0.4,0.2l0.4,0.2c1,0.7,3.1,2,3.3,2.2
	c0.9,0.8,1.3,2,1.3,3.4v13c0,2.5-1.1,3.7-3.5,3.7H7z M12.6,110.2H21V97.3L17.8,95h-5.2V110.2z M12.6,90.3h5.1l3.2-2.4V76.8h-8.2
	V90.3z"/>
<path class="st3" d="M59.2,87.5H48.4V93H53v12.3h-8V72.7h8v7.8h6.2v-9.4c0-2.7-1.3-4-3.8-4H42.6c-2.5,0-3.7,1.3-3.7,4v35.8
	c0,2.7,1.2,4,3.7,4h12.9c2.5,0,3.8-1.3,3.8-4V87.5z M164,67.1h-16.8v43.8h6.2V91.5h9.1v-5.7h-9.1v-13H164V67.1z M95.5,96.1h-6.1v9.2
	h-8V72.7h8v8.7h6.1V71.1c0-2.7-1.3-4-3.8-4H78.9c-2.4,0-3.7,1.3-3.7,4v35.8c0,2.7,1.2,4,3.7,4h12.8c2.5,0,3.8-1.3,3.8-4V96.1z
	 M121,67.1h-6.2v18.1h-8.3V67.1h-6.2v43.8h6.2V91.3h8.3v19.7h6.2V67.1z M143,105.1H132V91.4h9.3v-5.7H132V72.9h10.8v-5.8h-16.9v43.8
	H143V105.1z M22.7,93.9c0-1.5-0.5-2.7-1.4-3.6C21.2,90.2,20,89.4,18,88c2-1.3,3.1-2,3.2-2.2c0.9-0.8,1.3-2,1.3-3.5V71.1
	c0-2.7-1.2-4-3.7-4H2.5v43.8h16.4c2.5,0,3.8-1.3,3.8-4V93.9z M13.4,85.5H8.7V72.6h7.7v10.6L13.4,85.5z M8.7,105.4V90.8h4.8l3,2.1
	v12.5H8.7z M33.8,67.1h-6.2v43.8h6.2V67.1z"/>
<path class="st4" d="M59.2,87.5H48.4V93H53v12.3h-8V72.7h8v7.8h6.2v-9.4c0-2.7-1.3-4-3.8-4H42.6c-2.5,0-3.7,1.3-3.7,4v35.8
	c0,2.7,1.2,4,3.7,4h12.9c2.5,0,3.8-1.3,3.8-4V87.5z M164,67.1h-16.8v43.8h6.2V91.5h9.1v-5.7h-9.1v-13H164V67.1z M95.5,96.1h-6.1v9.2
	h-8V72.7h8v8.7h6.1V71.1c0-2.7-1.3-4-3.8-4H78.9c-2.4,0-3.7,1.3-3.7,4v35.8c0,2.7,1.2,4,3.7,4h12.8c2.5,0,3.8-1.3,3.8-4V96.1z
	 M121,67.1h-6.2v18.1h-8.3V67.1h-6.2v43.8h6.2V91.3h8.3v19.7h6.2V67.1z M143,105.1H132V91.4h9.3v-5.7H132V72.9h10.8v-5.8h-16.9v43.8
	H143V105.1z M22.7,93.9c0-1.5-0.5-2.7-1.4-3.6C21.2,90.2,20,89.4,18,88c2-1.3,3.1-2,3.2-2.2c0.9-0.8,1.3-2,1.3-3.5V71.1
	c0-2.7-1.2-4-3.7-4H2.5v43.8h16.4c2.5,0,3.8-1.3,3.8-4V93.9z M13.4,85.5H8.7V72.6h7.7v10.6L13.4,85.5z M8.7,105.4V90.8h4.8l3,2.1
	v12.5H8.7z M33.8,67.1h-6.2v43.8h6.2V67.1z"/>
<path class="st5" d="M24.7,106.9c0,2.7-1.2,4-3.8,4H4.5V67.1h16.3c2.4,0,3.7,1.3,3.7,4v11.3c0,1.5-0.4,2.6-1.3,3.5
	C23,86,22,86.7,20,88c2.1,1.4,3.2,2.1,3.3,2.2c1,0.9,1.4,2.1,1.4,3.6V106.9z M18.4,83.2V72.6h-7.7v12.9h4.7L18.4,83.2z M18.5,105.4
	V92.9l-3-2.1h-4.8v14.6H18.5z M35.8,110.9h-6.2V67.1h6.2V110.9z M61.2,106.9c0,2.7-1.3,4-3.8,4H44.5c-2.4,0-3.7-1.3-3.7-4V71.1
	c0-2.7,1.2-4,3.7-4h12.9c2.5,0,3.8,1.3,3.8,4v9.3H55v-7.8h-8v32.6h8V93h-4.6v-5.6h10.8V106.9z M97.5,106.9c0,2.7-1.2,4-3.8,4H80.9
	c-2.4,0-3.7-1.3-3.7-4V71.1c0-2.7,1.2-4,3.7-4h12.8c2.5,0,3.8,1.3,3.8,4v10.2h-6.1v-8.7h-8v32.6h8v-9.2h6.1V106.9z M123,110.9h-6.2
	V91.3h-8.3v19.7h-6.2V67.1h6.2v18.1h8.3V67.1h6.2V110.9z M145,110.9h-17.1V67.1h16.9v5.8H134v12.8h9.3v5.7H134v13.8H145V110.9z
	 M166,72.9h-10.6v13h9.1v5.7h-9.1v19.4h-6.2V67.1H166V72.9z"/>
<path class="st3" d="M48.6,16.4c0,0,2.6-1.8,3.8-4.7c1.4-3.2,3.8-3.7,5-3.5c2.7,0.3,4.4,1.6,7.6,2.8c3.2,1.2,1.8,0.5,1.8,0.5
	s1.7-7.6,6.5-8c4.8-0.4,11,1.9,12.6,2.8l1.5,1c0,0,5.3-3.8,11.7,0.1c4.6,2.8,3.4,9,3.2,10.1c0,0-1.2,3-5.1,4c-3.9,1-7.2,2.7-7.2,2.7
	s1.1,8.5,2.6,12.2c1.5,3.7,4.2,9.1,5.2,9.9c1,0.8,1.3,2,1.3,2s-1.6,5.3-4.1,8.5c-2.5,3.1-8.9,9.1-13.8,10.1c-4.8,1-10.7,1.5-13.7,0
	c-3-1.5-3.6-3.3-3.9-6.2c-0.3-2.8-1.2-5.6-1.9-7.9c-0.7-2.3-1.8-5-3.1-6.2c-1.3-1.2-1.8-1.7-1.8-1.7s-4.7,2.4-8,1.7
	c-3.3-0.7-7.6-1.9-9.9-5.6c-2.3-3.7-3.7-8.4-3.6-12.4c0-3.9,1.9-8.2,3.8-9.3c1.9-1.1,5.6-1.7,7.4-2.2L48.6,16.4z"/>
<path class="st6" d="M48.6,16.4c0,0,2.6-1.8,3.8-4.7c1.4-3.2,3.8-3.7,5-3.5c2.7,0.3,4.4,1.6,7.6,2.8c3.2,1.2,1.8,0.5,1.8,0.5
	s1.7-7.6,6.5-8c4.8-0.4,11,1.9,12.6,2.8l1.5,1c0,0,5.3-3.8,11.7,0.1c4.6,2.8,3.4,9,3.2,10.1c0,0-1.2,3-5.1,4c-3.9,1-7.2,2.7-7.2,2.7
	s1.1,8.5,2.6,12.2c1.5,3.7,4.2,9.1,5.2,9.9c1,0.8,1.3,2,1.3,2s-1.6,5.3-4.1,8.5c-2.5,3.1-8.9,9.1-13.8,10.1c-4.8,1-10.7,1.5-13.7,0
	c-3-1.5-3.6-3.3-3.9-6.2c-0.3-2.8-1.2-5.6-1.9-7.9c-0.7-2.3-1.8-5-3.1-6.2c-1.3-1.2-1.8-1.7-1.8-1.7s-4.7,2.4-8,1.7
	c-3.3-0.7-7.6-1.9-9.9-5.6c-2.3-3.7-3.7-8.4-3.6-12.4c0-3.9,1.9-8.2,3.8-9.3c1.9-1.1,5.6-1.7,7.4-2.2L48.6,16.4z"/>
<path class="st2" d="M66.8,11.5c0,0,0.8-5.5,3.9-6.9c3.1-1.4-1.2,3.4,5,4.1c6.1,0.7,10.2-1.5,10.2-1.5s-7.2,7.1-12.6,6
	C67.9,12.1,66.8,11.5,66.8,11.5 M47.2,17.8c0,0-7.7,13.1,0.2,17.1c7.9,4.1,15.1-2.5,17.8-5.6c2.7-3.1-0.2,5.6,9.4,4.6
	c9.5-1,6.8-4.7,11.7-6.8c-9.4,11.7-16.9,15.1-12.8,25.8c4.1,10.7,3.2,14.8,11.7,11.5c-11,5.2-20.1,4.5-20.8-0.6
	c-0.7-5.1-5.4-20-7.8-18.5c-2.5,1.4-14.7,5-20.4-9.1c-3.5-8.9,0.4-17.1,6.1-18.3C48.1,16.7,47.2,17.8,47.2,17.8 M87.4,7.2
	c-10.1,10.2-14.6,9.9-17.3,9.6c-2.6-0.3-4.9,2.1-1.7,4.9c3.3,2.8,8.7-2.9,10.4-5.8C80.6,13,87.4,7.2,87.4,7.2"/>
<path class="st5" d="M85.9,6.3c0,0-15.2-10.5-18.6,3.2C70.5,1.3,82,4.6,85.9,6.3 M85,66.2c-8.9,4-18.4,2.6-20.7-0.7
	c-1.9-2.8-1.8-12.5-5.8-19C61.3,48.2,64,56.9,65,63c0.5,3.3,8.4,6.4,18.6,1.9c10.2-4.5,16.1-15.7,14.1-17.3
	c-5.4-7.2-8-17.4-6.8-20.6C95,47.8,100.5,45,100,48.8C99.6,51.1,94,62.3,85,66.2 M75.3,19.7c2.8-2.3,8.1-11.5,12.7-13.4
	C92.7,4.3,98.1,3,102.4,10c1.9,3.1,1.8,6.4-0.9,10c-2.8,3.6-8.5,1-17.6,9.2c5.3-7.9,8.2-6.4,14.7-9.3c7.6-3.4,1.7-16.9-8.8-12.9
	c-8.2,3.2-11.7,12.4-13.2,13.5c-2.9,2.2-7.7,3.2-9.5,0.7c-0.7-1-1.4-2.3,0.1-4.2c1.5-1.9,4.5-0.5,6.2,0.3c-2.9-0.4-5.2-0.7-5.8,1
	C66.5,21.7,71.6,22.7,75.3,19.7 M64.6,29.5C65.2,37,61,45.7,52.7,47c-7.3,0.7-13.9-1.7-16.6-9.7C34,30.9,33.6,24,37.2,19.8
	c3.8-3.9,9.2-2.3,12.7-5.6c2.4-2.2,3-7.1,7.4-7.1c5.1,0.4,7.3,4.9,18.1,5.9c-8.5,0.7-16.9-5.6-20-3.6c-3.1,2-1.8,5.7-8.3,8.2
	c-2.1,0.8-5.9,0.8-7.7,2.1c-1.6,1.2-3,4.6-3.2,6.6c-0.7,4.8,0.8,12.3,4.7,15.8c3.9,3.5,8.6,4.8,13.8,2.8
	C61.8,42.3,63.6,34.5,64.6,29.5"/>
</svg>
